<svg width="22" height="22" viewBox="0 0 22 22" fill="none" xmlns="http://www.w3.org/2000/svg">
<path d="M1 1L3.24865 1.39908L4.28974 14.1175C4.37298 15.1562 5.21947 15.9533 6.23569 15.95H18.0292C18.999 15.9522 19.8217 15.2205 19.959 14.2361L20.9849 6.96624C21.0995 6.15367 20.5492 5.39985 19.7579 5.28234C19.6887 5.27237 3.60973 5.26682 3.60973 5.26682" stroke="#050E0C" stroke-width="1.5" stroke-linecap="round" stroke-linejoin="round"/>
<path fill-rule="evenodd" clip-rule="evenodd" d="M5.76141 19.7928C6.0868 19.7928 6.34949 20.0633 6.34949 20.3958C6.34949 20.7295 6.0868 21 5.76141 21C5.43603 21 5.17334 20.7295 5.17334 20.3958C5.17334 20.0633 5.43603 19.7928 5.76141 19.7928Z" fill="#050E0C" stroke="#050E0C" stroke-width="1.5" stroke-linecap="round" stroke-linejoin="round"/>
<path fill-rule="evenodd" clip-rule="evenodd" d="M17.9562 19.7928C18.2816 19.7928 18.5454 20.0633 18.5454 20.3958C18.5454 20.7295 18.2816 21 17.9562 21C17.6309 21 17.3682 20.7295 17.3682 20.3958C17.3682 20.0633 17.6309 19.7928 17.9562 19.7928Z" fill="#050E0C" stroke="#050E0C" stroke-width="1.5" stroke-linecap="round" stroke-linejoin="round"/>
</svg>
