<svg width="12" height="12" viewBox="0 0 12 12" fill="none" xmlns="http://www.w3.org/2000/svg">
<path d="M6.49988 8.99934C6.49988 9.27518 6.27605 9.49879 5.99994 9.49879C5.72383 9.49879 5.5 9.27518 5.5 8.99934C5.5 8.7235 5.72383 8.49988 5.99994 8.49988C6.27605 8.49988 6.49988 8.7235 6.49988 8.99934Z" fill="#0E9675"/>
<path d="M6 12C2.69147 12 0 9.30853 0 6C0 2.69147 2.69147 0 6 0C9.30853 0 12 2.69147 12 6C12 9.30853 9.30853 12 6 12ZM6 0.75C3.10501 0.75 0.75 3.10501 0.75 6C0.75 8.89499 3.10501 11.25 6 11.25C8.89499 11.25 11.25 8.89499 11.25 6C11.25 3.10501 8.89499 0.75 6 0.75Z" fill="#0E9675"/>
<path d="M6.00006 7.37492C5.79306 7.37492 5.62506 7.20693 5.62506 6.99993V6.49494C5.62506 6.01897 5.92709 5.59244 6.37607 5.43396C6.97356 5.22349 7.37511 4.58694 7.37511 4.12498C7.37511 3.36648 6.75859 2.74998 6.00006 2.74998C5.24154 2.74998 4.62501 3.36648 4.62501 4.12498C4.62501 4.33197 4.45701 4.49997 4.25001 4.49997C4.043 4.49997 3.875 4.33197 3.875 4.12498C3.875 2.9535 4.82808 2 6.00006 2C7.17204 2 8.12512 2.9535 8.12512 4.12498C8.12512 4.959 7.46657 5.84447 6.62556 6.14146C6.47559 6.19392 6.37507 6.33637 6.37507 6.4954V6.99993C6.37507 7.20693 6.20706 7.37492 6.00006 7.37492Z" fill="#0E9675"/>
</svg>
