<svg width="11" height="13" viewBox="0 0 11 13" fill="none" xmlns="http://www.w3.org/2000/svg">
<path fill-rule="evenodd" clip-rule="evenodd" d="M0 5.11764C0 2.28749 2.30633 0 5.09607 0C7.89368 0 10.2 2.28749 10.2 5.11764C10.2 6.54378 9.69422 7.8678 8.86171 8.99001C7.94329 10.2279 6.8113 11.3064 5.53713 12.153C5.24551 12.3487 4.98233 12.3634 4.66228 12.153C3.38085 11.3064 2.24886 10.2279 1.3383 8.99001C0.505191 7.8678 0 6.54378 0 5.11764ZM3.41602 5.27703C3.41602 6.22512 4.17048 6.97079 5.09555 6.97079C6.02124 6.97079 6.78296 6.22512 6.78296 5.27703C6.78296 4.33633 6.02124 3.55435 5.09555 3.55435C4.17048 3.55435 3.41602 4.33633 3.41602 5.27703Z" fill="#0E9675"/>
</svg>
