<svg width="10" height="10" viewBox="0 0 10 10" fill="none" xmlns="http://www.w3.org/2000/svg">
<rect width="10" height="10" rx="1.5" fill="#0E9675"/>
<path fill-rule="evenodd" clip-rule="evenodd" d="M4.50856 4.98192L3.15948 6.33101L2.59171 5.76318C2.54177 5.71332 2.48512 5.68588 2.4216 5.68101C2.35808 5.67614 2.30492 5.69516 2.26209 5.73791C2.21926 5.7808 2.20029 5.83397 2.20516 5.89745L1.97847 7.89056C1.98333 7.95402 2.01072 8.01071 2.06067 8.06067C2.11065 8.11058 2.16737 8.13802 2.23084 8.14288L4.22394 7.91619C4.28742 7.92106 4.34055 7.90204 4.38339 7.85925C4.4262 7.81641 4.44519 7.76328 4.44033 7.6998C4.43546 7.63632 4.40804 7.57959 4.35811 7.52959L3.79036 6.96193L5.26757 5.48464L5.27007 5.48207L6.61877 4.13344L7.18643 4.70116C7.23642 4.7511 7.29316 4.77856 7.35664 4.78343C7.42012 4.78829 7.47324 4.76926 7.51609 4.72644C7.55889 4.68363 7.57785 4.63046 7.57299 4.56698L7.79966 2.57391C7.79483 2.51038 7.76758 2.45378 7.71754 2.40384C7.66763 2.35389 7.61091 2.3265 7.54743 2.32163L5.55435 2.5483C5.49088 2.54344 5.43777 2.56241 5.3949 2.60524C5.3521 2.64805 5.33313 2.70121 5.338 2.76469C5.34286 2.82817 5.37025 2.8849 5.42016 2.93481L5.98785 3.50257L4.51062 4.97981L4.50856 4.98192Z" fill="#FEFEFE"/>
</svg>
