<svg width="12" height="12" viewBox="0 0 12 12" fill="none" xmlns="http://www.w3.org/2000/svg">
<path fill-rule="evenodd" clip-rule="evenodd" d="M6 12C2.688 12 0 9.318 0 6C0 2.688 2.688 0 6 0C9.318 0 12 2.688 12 6C12 9.318 9.318 12 6 12ZM7.91403 8.226C7.98603 8.268 8.06403 8.292 8.14803 8.292C8.29803 8.292 8.44803 8.214 8.53203 8.07C8.65803 7.86 8.59203 7.584 8.37603 7.452L6.24003 6.18V3.408C6.24003 3.156 6.03603 2.958 5.79003 2.958C5.54403 2.958 5.34003 3.156 5.34003 3.408V6.438C5.34003 6.594 5.42403 6.738 5.56203 6.822L7.91403 8.226Z" fill="#0E9675"/>
</svg>
