<svg width="21" height="21" viewBox="0 0 21 21" fill="none" xmlns="http://www.w3.org/2000/svg">
<path d="M18.4506 7.89929C18.4506 7.89929 17.8422 14.8166 17.4892 17.7304C17.3212 19.1221 16.3834 19.9376 14.8473 19.9633C11.9242 20.0116 8.99764 20.0147 6.0756 19.9582C4.59778 19.9304 3.67568 19.1047 3.51098 17.7376C3.1558 14.7982 2.55078 7.89929 2.55078 7.89929" stroke="#ECA2A2" stroke-width="1.5" stroke-linecap="round" stroke-linejoin="round"/>
<path d="M20 4.58324H1" stroke="#ECA2A2" stroke-width="1.5" stroke-linecap="round" stroke-linejoin="round"/>
<path d="M16.3383 4.58346C15.4587 4.58346 14.7013 4.01343 14.5288 3.22361L14.2565 1.97469C14.0885 1.3985 13.5193 1 12.8706 1H8.12785C7.47912 1 6.90995 1.3985 6.74189 1.97469L6.46963 3.22361C6.29708 4.01343 5.53968 4.58346 4.66016 4.58346" stroke="#ECA2A2" stroke-width="1.5" stroke-linecap="round" stroke-linejoin="round"/>
</svg>
