<svg width="12" height="13" viewBox="0 0 12 13" fill="none" xmlns="http://www.w3.org/2000/svg">
<path fill-rule="evenodd" clip-rule="evenodd" d="M4.25093 11.6407L10.1085 3.87305C10.4269 3.45416 10.5401 2.96988 10.4339 2.47677C10.342 2.0285 10.0731 1.60227 9.66991 1.27892L8.68657 0.477899C7.83057 -0.220238 6.76941 -0.14675 6.16102 0.65427L5.5031 1.52951C5.41821 1.63901 5.43943 1.80068 5.54554 1.88887C5.54554 1.88887 7.20802 3.25575 7.2434 3.28514C7.35659 3.39537 7.44148 3.54235 7.4627 3.71872C7.49807 4.06412 7.26462 4.38746 6.91797 4.43156C6.75526 4.4536 6.59963 4.40216 6.48644 4.30663L4.73906 2.88096C4.65417 2.81555 4.52683 2.82952 4.45609 2.9177L0.303426 8.42931C0.034599 8.7747 -0.057368 9.22298 0.034599 9.65656L0.565178 12.0155C0.593475 12.1405 0.699591 12.2286 0.82693 12.2286L3.16148 12.1992C3.58594 12.1919 3.98211 11.9935 4.25093 11.6407ZM7.51986 10.9061H11.3266C11.698 10.9061 12.0001 11.2199 12.0001 11.6057C12.0001 11.9923 11.698 12.3054 11.3266 12.3054H7.51986C7.14845 12.3054 6.84637 11.9923 6.84637 11.6057C6.84637 11.2199 7.14845 10.9061 7.51986 10.9061Z" fill="#0E9675"/>
</svg>
