<svg width="8" height="11" viewBox="0 0 8 11" fill="none" xmlns="http://www.w3.org/2000/svg">
<path fill-rule="evenodd" clip-rule="evenodd" d="M7.56527 3.46155C7.84561 3.0901 8 2.63054 8 2.16752C8 0.972343 7.01394 0 5.80184 0H2.1982C0.9861 0 0 0.972343 0 2.16752C0 2.63054 0.154391 3.0901 0.434731 3.46155L1.13069 4.38369C0.485155 5.08541 0.132673 5.98361 0.132673 6.9406C0.132673 7.62249 0.317481 8.29173 0.667132 8.87599C1.00637 9.44283 1.4912 9.91635 2.06924 10.2454L2.14014 10.2857H5.85982L5.93072 10.2454C6.50876 9.91635 6.99361 9.44283 7.33283 8.87599C7.6825 8.29173 7.86731 7.62249 7.86731 6.9406C7.86731 5.98361 7.5148 5.08541 6.86929 4.38369L7.56527 3.46155ZM2.19833 1.90849H5.80198L6.01272 2.32219L5.08966 3.59619C4.74624 3.48751 4.38021 3.42859 4.00016 3.42859C3.62012 3.42859 3.25411 3.48751 2.91067 3.59619L1.98758 2.32217L2.19833 1.90849Z" fill="#0E9675"/>
</svg>
