<svg width="360" height="329" viewBox="0 0 360 329" fill="none" xmlns="http://www.w3.org/2000/svg">
<path fill-rule="evenodd" clip-rule="evenodd" d="M266.287 92.5378C275.216 92.5378 281.072 95.6774 286.927 102.555C292.783 109.432 293.807 119.299 292.49 128.254L278.583 226.329C275.948 245.182 260.139 259.071 241.548 259.071H81.8406C62.3713 259.071 46.2688 243.836 44.6586 224.102L31.1911 61.1269L9.08679 57.2397C3.23135 56.1932 -0.867451 50.3625 0.15725 44.3823C1.18195 38.2676 6.891 34.216 12.8928 35.128L47.8059 40.4952C52.783 41.4072 56.4426 45.5784 56.8818 50.6615L59.6631 84.1506C60.1023 88.9497 63.9083 92.5378 68.5927 92.5378H266.287ZM79.4923 282.701C67.1959 282.701 57.2416 292.868 57.2416 305.426C57.2416 317.835 67.1959 328.001 79.4923 328.001C91.6423 328.001 101.597 317.835 101.597 305.426C101.597 292.868 91.6423 282.701 79.4923 282.701ZM244.175 282.701C231.879 282.701 221.925 292.868 221.925 305.426C221.925 317.835 231.879 328.001 244.175 328.001C256.325 328.001 266.28 317.835 266.28 305.426C266.28 292.868 256.325 282.701 244.175 282.701Z" fill="#E4F2EF"/>
<circle cx="286" cy="74" r="74" fill="#6EC0AC"/>
<path fill-rule="evenodd" clip-rule="evenodd" d="M275.818 98C274.178 98 272.521 97.439 271.268 96.3092L250.887 78.0722C248.371 75.8204 248.371 72.1776 250.887 69.9259C253.402 67.6741 257.471 67.6741 259.987 69.9259L275.818 84.0821L312.013 51.6888C314.529 49.4371 318.598 49.4371 321.113 51.6888C323.629 53.9406 323.629 57.5834 321.113 59.8352L280.368 96.3092C279.115 97.439 277.466 98 275.818 98Z" fill="#FEFEFE"/>
</svg>
