<svg width="10" height="10" viewBox="0 0 10 10" fill="none" xmlns="http://www.w3.org/2000/svg">
<path d="M9.96207 0.553368C9.95931 0.473088 9.95715 0.409706 9.95752 0.37739C9.95806 0.327919 9.96019 0.285475 9.9619 0.251337C9.96653 0.15982 9.96961 0.0993685 9.91928 0.0464269C9.8912 0.0169265 9.85178 0 9.81107 0C9.72683 0 9.69116 0.0448054 9.57293 0.193218C9.48016 0.309684 9.32489 0.504609 9.07009 0.786812C8.73053 1.16286 8.34153 1.49556 7.88076 1.80388L7.84134 1.83025L7.82563 1.87503C7.7511 2.08771 7.6154 2.4748 7.50707 2.76505C7.48318 2.63112 7.45294 2.47383 7.41288 2.30377L7.36993 2.12139L7.20578 2.21177C6.82876 2.41941 6.4442 2.60361 6.07225 2.78175C5.71187 2.95437 5.37149 3.1174 5.04024 3.29876L4.99242 3.32493L4.97433 3.37637C4.91393 3.5483 4.79394 3.88976 4.69406 4.15723C4.67401 4.04478 4.64931 3.91494 4.61825 3.77586L4.57236 3.57041L4.39886 3.68963C4.36335 3.71404 4.32851 3.7393 4.29374 3.76457C4.2664 3.78442 4.23907 3.80428 4.21139 3.82365C3.24237 4.50137 2.64735 5.13866 2.27087 5.69879C1.0624 7.27264 0.106584 9.30365 0.0651066 9.39238C-0.0347454 9.60583 0.0573688 9.85984 0.270785 9.95972C0.329274 9.98706 0.390778 10 0.451344 10C0.611875 10 0.765636 9.90902 0.838149 9.75404C0.844664 9.7401 1.26905 8.83822 1.89368 7.7931C2.04024 7.84118 2.25013 7.87455 2.55157 7.87457C2.55159 7.87457 2.55159 7.87457 2.55162 7.87457C2.63958 7.87457 2.73457 7.87181 2.83388 7.86632C3.24 7.84394 4.09967 7.69291 5.02394 7.48154L5.24996 7.42985L5.10146 7.25179C5.03234 7.1689 4.97456 7.09877 4.92622 7.03946C5.13702 7.11709 5.4095 7.21125 5.71306 7.28559L5.75016 7.29466L5.78677 7.28397C6.66197 7.02839 7.4161 6.697 8.02824 6.29904L8.25047 6.15456L8.00722 6.04924C7.87909 5.99377 7.60163 5.87366 7.37158 5.76898C7.78797 5.72434 8.42162 5.63609 8.9803 5.38373L9.01737 5.36698L9.03999 5.33318C9.3421 4.88137 9.57478 4.3082 9.73153 3.62958L9.77138 3.4569L9.59418 3.45534C9.40159 3.45363 9.2507 3.45118 9.13278 3.44834C9.32082 3.34317 9.55848 3.20411 9.80191 3.03178L9.85175 2.9965L9.86051 2.93608C10.0087 1.91284 9.97601 0.960173 9.96207 0.553368Z" fill="#0E9675"/>
</svg>
