<svg width="9" height="9" viewBox="0 0 9 9" fill="none" xmlns="http://www.w3.org/2000/svg">
<circle cx="4.5" cy="4.5" r="4.25" stroke="#0E9675" stroke-width="0.5"/>
<path d="M4.458 6.016C4.422 6.016 4.392 6.004 4.368 5.98C4.344 5.956 4.332 5.926 4.332 5.89V5.65C4.34 5.438 4.394 5.256 4.494 5.104C4.594 4.952 4.74 4.778 4.932 4.582C5.088 4.422 5.202 4.29 5.274 4.186C5.346 4.082 5.382 3.968 5.382 3.844C5.382 3.66 5.304 3.514 5.148 3.406C4.996 3.298 4.818 3.244 4.614 3.244C4.138 3.244 3.858 3.484 3.774 3.964C3.754 4.052 3.702 4.096 3.618 4.096H3.33C3.29 4.096 3.258 4.084 3.234 4.06C3.21 4.036 3.198 4.004 3.198 3.964C3.206 3.744 3.268 3.542 3.384 3.358C3.504 3.17 3.672 3.02 3.888 2.908C4.104 2.796 4.352 2.74 4.632 2.74C4.928 2.74 5.176 2.792 5.376 2.896C5.58 2.996 5.73 3.128 5.826 3.292C5.922 3.452 5.97 3.624 5.97 3.808C5.97 4.012 5.924 4.188 5.832 4.336C5.74 4.484 5.602 4.656 5.418 4.852C5.266 5.012 5.152 5.148 5.076 5.26C5 5.368 4.956 5.49 4.944 5.626C4.936 5.738 4.932 5.822 4.932 5.878C4.912 5.97 4.862 6.016 4.782 6.016H4.458ZM4.41 7C4.37 7 4.336 6.988 4.308 6.964C4.284 6.936 4.272 6.902 4.272 6.862V6.496C4.272 6.456 4.284 6.424 4.308 6.4C4.336 6.372 4.37 6.358 4.41 6.358H4.8C4.84 6.358 4.874 6.372 4.902 6.4C4.93 6.424 4.944 6.456 4.944 6.496V6.862C4.944 6.902 4.93 6.936 4.902 6.964C4.874 6.988 4.84 7 4.8 7H4.41Z" fill="#0E9675"/>
</svg>
