<svg width="18" height="18" viewBox="0 0 18 18" fill="none" xmlns="http://www.w3.org/2000/svg">
<path fill-rule="evenodd" clip-rule="evenodd" d="M13.6324 5.94561C14.0896 5.94561 14.3893 6.10632 14.6891 6.45843C14.9889 6.81048 15.0413 7.31567 14.9739 7.7741L14.2619 12.795C14.127 13.7602 13.3177 14.4712 12.3659 14.4712H4.18979C3.19307 14.4712 2.36871 13.6913 2.28627 12.681L1.59681 4.33752L0.465194 4.13854C0.165428 4.08495 -0.0444088 3.78649 0.00805033 3.48034C0.0605094 3.16729 0.352782 2.95983 0.660042 3.00652L2.4474 3.2813C2.7022 3.328 2.88955 3.54156 2.91204 3.80175L3.05443 5.51623C3.07691 5.76189 3.27176 5.94561 3.51157 5.94561H13.6324ZM4.06978 15.6809C3.44027 15.6809 2.93066 16.2013 2.93066 16.8443C2.93066 17.4795 3.44027 18 4.06978 18C4.69179 18 5.20139 17.4795 5.20139 16.8443C5.20139 16.2013 4.69179 15.6809 4.06978 15.6809ZM12.5007 15.6809C11.8712 15.6809 11.3616 16.2013 11.3616 16.8443C11.3616 17.4795 11.8712 18 12.5007 18C13.1227 18 13.6323 17.4795 13.6323 16.8443C13.6323 16.2013 13.1227 15.6809 12.5007 15.6809Z" fill="#28BE9A"/>
<circle cx="13" cy="5" r="4.5" fill="#28BE9A" stroke="#FEFEFE"/>
<path d="M12 5L13.0003 6L15 4" stroke="#FEFEFE" stroke-linecap="round" stroke-linejoin="round"/>
</svg>
