<svg width="22" height="21" viewBox="0 0 22 21" fill="none" xmlns="http://www.w3.org/2000/svg">
<path fill-rule="evenodd" clip-rule="evenodd" d="M7.63801 10.1169C7.65832 10.1333 7.6775 10.1487 7.69668 10.1671C8.91405 11.2995 9.58535 12.7994 9.58535 14.3915V18.4706L12.1081 17.2235C12.3066 17.1252 12.4296 16.9327 12.4296 16.7208V14.3792C12.4296 12.7933 13.0942 11.2985 14.3002 10.1722L19.7575 4.90447C20.1106 4.56353 20.3047 4.1161 20.3047 3.6441V2.68577C20.3047 2.2107 19.8918 1.82471 19.3863 1.82471H2.60835C2.10178 1.82471 1.68884 2.2107 1.68884 2.68577V3.6441C1.68884 4.1161 1.8829 4.56353 2.23604 4.90345L7.63801 10.1169ZM9.19056 20.2536C8.96266 20.2536 8.73701 20.1983 8.53168 20.0877C8.13454 19.8727 7.89648 19.4929 7.89648 19.071V14.39C7.89648 13.2279 7.41924 12.1334 6.54938 11.2948C6.52343 11.2754 6.49748 11.2539 6.47491 11.2314L1.00751 5.95543C0.357649 5.32883 0 4.50667 0 3.64254V2.6842C0 1.3624 1.17223 0.287354 2.61185 0.287354H19.3898C20.8283 0.287354 22.0005 1.3624 22.0005 2.6842V3.64254C22.0005 4.50565 21.6428 5.32678 20.9952 5.95441L15.5267 11.2314C14.6207 12.0791 14.1254 13.1941 14.1254 14.3777V16.7192C14.1254 17.4933 13.664 18.2018 12.9216 18.5704L9.80658 20.1103C9.61252 20.2055 9.40154 20.2536 9.19056 20.2536Z" fill="#FEFEFE"/>
</svg>
